<?xml version="1.0" encoding="UTF-8" standalone="no"?>
<svg width="260px" height="66px" viewBox="0 0 260 66" version="1.1" xmlns="http://www.w3.org/2000/svg" xmlns:xlink="http://www.w3.org/1999/xlink">
    <!-- Generator: Sketch 41.2 (35397) - http://www.bohemiancoding.com/sketch -->
    <title>BeerMe</title>
    <desc>Created with Sketch.</desc>
    <defs></defs>
    <g id="Symbols" stroke="none" stroke-width="1" fill="none" fill-rule="evenodd">
        <g id="BeerMe" transform="translate(2.000000, 3.000000)">
            <g>
                <g id="Text_outline_3" stroke="#FFFFFF" stroke-width="5" fill="#0C0C0C">
                    <path d="M132.12,34.09 L131.01,34.82 L137.62,18.82 L124.88,19.23 L123.74,20.94 C123.453333,21.3666667 123.166667,21.7666667 122.88,22.14 C121.418715,20.0546627 118.982191,18.8742349 116.44,19.02 C113.689594,19.0071085 111.037126,20.0402127 109.02,21.91 C108.78,22.1233333 108.553333,22.3433333 108.34,22.57 C105.839874,20.1313309 102.438471,18.8417681 98.95,19.01 C98.0868392,19.0093116 97.2247031,19.0694606 96.37,19.19 C93.3613073,19.6395205 90.4874243,20.741972 87.95,22.42 C86.7059386,23.2201233 85.5466209,24.1448969 84.49,25.18 C84.3222572,24.8344631 84.1318416,24.5004005 83.92,24.18 C81.69,20.8 77.99,19.01 73.24,19.01 C72.3768403,19.0093447 71.5147066,19.0694936 70.66,19.19 C67.6547794,19.6409278 64.7844519,20.7433247 62.25,22.42 C61.8966667,22.6533333 61.5633333,22.89 61.25,23.13 C61.4038842,22.6915036 61.5307881,22.2440005 61.63,21.79 C61.9194062,20.5808115 62.0736844,19.3432324 62.09,18.1 C62.164274,13.6898391 60.1558606,9.50255651 56.67,6.8 C51.88,2.85 45.67,0.85 38.29,0.85 C32.1677193,0.814002628 26.1270175,2.25471517 20.68,5.05 C14.09,8.52 9.94,13.37 8.36,19.47 C7.95703153,20.9706661 7.74535405,22.5162476 7.73,24.07 C7.73,28.07 9.64,31.55 13.42,34.55 L15.12,35.9 L0.77,43.34 L1.43,48.28 C2.43,55.91 7.15,60.11 14.76,60.11 C20.1655879,60.160643 25.4434147,58.4668289 29.81,55.28 C31.32,57.57 34.21,59.89 39.74,59.89 C43.1501833,59.892768 46.5027428,59.0106969 49.47,57.33 C52.4792958,55.6649599 55.0102321,53.2545444 56.82,50.33 C57.4001505,49.394594 57.8986593,48.4109592 58.31,47.39 C61.488435,49.7301726 65.3656606,50.925063 69.31,50.78 C72.5931493,50.8102876 75.8462702,50.1528506 78.86,48.85 C80.2631988,48.1726669 81.6020243,47.3693716 82.86,46.45 L83.05,46.63 C86.05,49.38 90.05,50.78 94.97,50.78 C98.2497856,50.8088904 101.499357,50.1514824 104.51,48.85 C105.516624,48.3634916 106.488882,47.8088703 107.42,47.19 L107.55,47.11 L108.72,46.39 C110.186754,45.4821267 111.593042,44.4800208 112.93,43.39 C113.087586,44.0821538 113.325883,44.7534146 113.64,45.39 C115.319785,48.9046944 118.949813,51.0629826 122.84,50.86 C125.729811,50.7556119 128.545232,49.915804 131.02,48.42 C131.948291,47.8740907 132.834131,47.2590165 133.67,46.58 C134.33,46.07 135.16,45.44 136.18,44.72 L136.58,44.43 L137.58,42.88 L138.08,41.72 L138.08,29.71 L132.12,34.09 Z M27.91,15.79 C27.3674415,16.5029513 26.8730121,17.2512769 26.43,18.03 C25.6656641,19.3830297 25.0327703,20.8062035 24.54,22.28 C23.8710875,21.8137024 23.4285,21.0881491 23.32,20.28 C23.318959,20.1111658 23.3638991,19.9452332 23.45,19.8 C24.5310953,18.0787967 26.0679435,16.6907874 27.89,15.79 L27.91,15.79 Z M21.12,33.34 L22.12,32.83 L22.12,33.08 C20.96,41.95 19.12,45.82 17.72,47.14 C17.8406624,45.2808539 18.1762312,43.4419369 18.72,41.66 L21.12,33.34 Z" id="Shape"></path>
                    <path d="M250.57,32.86 C252.155857,30.1730152 252.050722,26.8125959 250.3,24.23 C248.07,20.85 244.38,19.06 239.62,19.06 C238.756839,19.0593116 237.894703,19.1194606 237.04,19.24 C234.03139,19.6898347 231.157573,20.792261 228.62,22.47 C226.059362,24.0888707 223.898642,26.2666842 222.3,28.84 C220.6621,31.4470675 219.766606,34.4516379 219.71,37.53 C219.711624,38.1020455 219.751714,38.6733343 219.83,39.24 L217.52,41.71 C216.807304,42.4632253 216.012329,43.1340902 215.15,43.71 C215.017214,42.9373131 214.956952,42.1539049 214.97,41.37 C214.97,34.44 218.04,22.6 224.08,6.18 L226.35,0.01 L209.64,2.1 L208.83,2.66 C204.536808,5.72497715 200.980616,9.70818605 198.42,14.32 C197.202535,16.4951117 196.097743,18.7313987 195.11,21.02 C195.043673,16.025253 195.591105,11.0412691 196.74,6.18 L198.35,0.89 L183.12,1.41 L181.99,2.78 C178.116257,7.3199953 175.191973,12.5905063 173.39,18.28 C172.97,19.64 172.31,22.28 171.3,26.61 C170.351974,30.9419971 169.112487,35.2050289 167.59,39.37 C166.99879,40.9438788 166.251744,42.4547222 165.36,43.88 C165.43,42.98 165.56,41.98 165.75,40.88 L167.75,29.31 L148.7,46.71 L148.98,48.78 C149.309729,51.6435657 150.562896,54.3219036 152.55,56.41 C154.654797,58.6229696 157.596801,59.8433565 160.65,59.77 C163.833567,59.7381167 166.914482,58.6395505 169.4,56.65 C171.940895,54.7278867 174.106877,52.3551369 175.79,49.65 C175.56,51.59 175.28,53.38 174.95,55.01 L173.95,60.01 L179.04,59.82 C184.89,59.6 186.97,58.99 188.14,58.47 L188.78,58.19 L189.29,57.71 C192.45379,54.6100356 195.097646,51.02074 197.12,47.08 C197.361338,48.3985919 197.695503,49.6984926 198.12,50.97 C200.74,58.67 206.12,59.81 209.04,59.81 C214.83,59.81 220.75,56.4 227.12,49.38 L227.38,49.09 C229.982708,50.2784044 232.819366,50.866242 235.68,50.81 C238.963121,50.8399919 242.216181,50.1825672 245.23,48.88 C246.759089,48.1452647 248.215529,47.2680526 249.58,46.26 C251.73,44.75 252.64,44.18 252.98,43.97 L253.2,43.83 L255.12,42.71 L255.12,30.15 L250.57,32.86 Z" id="Shape"></path>
                </g>
                <g id="Text_outline_2" fill="#000000">
                    <path d="M132.12,34.09 L131.01,34.82 L137.62,18.82 L124.88,19.23 L123.74,20.94 C123.453333,21.3666667 123.166667,21.7666667 122.88,22.14 C121.418715,20.0546627 118.982191,18.8742349 116.44,19.02 C113.689594,19.0071085 111.037126,20.0402127 109.02,21.91 C108.78,22.1233333 108.553333,22.3433333 108.34,22.57 C105.839874,20.1313309 102.438471,18.8417681 98.95,19.01 C98.0868392,19.0093116 97.2247031,19.0694606 96.37,19.19 C93.3613073,19.6395205 90.4874243,20.741972 87.95,22.42 C86.7059386,23.2201233 85.5466209,24.1448969 84.49,25.18 C84.3222572,24.8344631 84.1318416,24.5004005 83.92,24.18 C81.69,20.8 77.99,19.01 73.24,19.01 C72.3768403,19.0093447 71.5147066,19.0694936 70.66,19.19 C67.6547794,19.6409278 64.7844519,20.7433247 62.25,22.42 C61.8966667,22.6533333 61.5633333,22.89 61.25,23.13 C61.4038842,22.6915036 61.5307881,22.2440005 61.63,21.79 C61.9194062,20.5808115 62.0736844,19.3432324 62.09,18.1 C62.164274,13.6898391 60.1558606,9.50255651 56.67,6.8 C51.88,2.85 45.67,0.85 38.29,0.85 C32.1677193,0.814002628 26.1270175,2.25471517 20.68,5.05 C14.09,8.52 9.94,13.37 8.36,19.47 C7.95703153,20.9706661 7.74535405,22.5162476 7.73,24.07 C7.73,28.07 9.64,31.55 13.42,34.55 L15.12,35.9 L0.77,43.34 L1.43,48.28 C2.43,55.91 7.15,60.11 14.76,60.11 C20.1655879,60.160643 25.4434147,58.4668289 29.81,55.28 C31.32,57.57 34.21,59.89 39.74,59.89 C43.1501833,59.892768 46.5027428,59.0106969 49.47,57.33 C52.4792958,55.6649599 55.0102321,53.2545444 56.82,50.33 C57.4001505,49.394594 57.8986593,48.4109592 58.31,47.39 C61.488435,49.7301726 65.3656606,50.925063 69.31,50.78 C72.5931493,50.8102876 75.8462702,50.1528506 78.86,48.85 C80.2631988,48.1726669 81.6020243,47.3693716 82.86,46.45 L83.05,46.63 C86.05,49.38 90.05,50.78 94.97,50.78 C98.2497856,50.8088904 101.499357,50.1514824 104.51,48.85 C105.516624,48.3634916 106.488882,47.8088703 107.42,47.19 L107.55,47.11 L108.72,46.39 C110.186754,45.4821267 111.593042,44.4800208 112.93,43.39 C113.087586,44.0821538 113.325883,44.7534146 113.64,45.39 C115.319785,48.9046944 118.949813,51.0629826 122.84,50.86 C125.729811,50.7556119 128.545232,49.915804 131.02,48.42 C131.948291,47.8740907 132.834131,47.2590165 133.67,46.58 C134.33,46.07 135.16,45.44 136.18,44.72 L136.58,44.43 L137.58,42.88 L138.08,41.72 L138.08,29.71 L132.12,34.09 Z M27.91,15.79 C27.3674415,16.5029513 26.8730121,17.2512769 26.43,18.03 C25.6656641,19.3830297 25.0327703,20.8062035 24.54,22.28 C23.8710875,21.8137024 23.4285,21.0881491 23.32,20.28 C23.318959,20.1111658 23.3638991,19.9452332 23.45,19.8 C24.5310953,18.0787967 26.0679435,16.6907874 27.89,15.79 L27.91,15.79 Z M21.12,33.34 L22.12,32.83 L22.12,33.08 C20.96,41.95 19.12,45.82 17.72,47.14 C17.8406624,45.2808539 18.1762312,43.4419369 18.72,41.66 L21.12,33.34 Z" id="Shape"></path>
                    <path d="M250.57,32.86 C252.155857,30.1730152 252.050722,26.8125959 250.3,24.23 C248.07,20.85 244.38,19.06 239.62,19.06 C238.756839,19.0593116 237.894703,19.1194606 237.04,19.24 C234.03139,19.6898347 231.157573,20.792261 228.62,22.47 C226.059362,24.0888707 223.898642,26.2666842 222.3,28.84 C220.6621,31.4470675 219.766606,34.4516379 219.71,37.53 C219.711624,38.1020455 219.751714,38.6733343 219.83,39.24 L217.52,41.71 C216.807304,42.4632253 216.012329,43.1340902 215.15,43.71 C215.017214,42.9373131 214.956952,42.1539049 214.97,41.37 C214.97,34.44 218.04,22.6 224.08,6.18 L226.35,0.01 L209.64,2.1 L208.83,2.66 C204.536808,5.72497715 200.980616,9.70818605 198.42,14.32 C197.202535,16.4951117 196.097743,18.7313987 195.11,21.02 C195.043673,16.025253 195.591105,11.0412691 196.74,6.18 L198.35,0.89 L183.12,1.41 L181.99,2.78 C178.116257,7.3199953 175.191973,12.5905063 173.39,18.28 C172.97,19.64 172.31,22.28 171.3,26.61 C170.351974,30.9419971 169.112487,35.2050289 167.59,39.37 C166.99879,40.9438788 166.251744,42.4547222 165.36,43.88 C165.43,42.98 165.56,41.98 165.75,40.88 L167.75,29.31 L148.7,46.71 L148.98,48.78 C149.309729,51.6435657 150.562896,54.3219036 152.55,56.41 C154.654797,58.6229696 157.596801,59.8433565 160.65,59.77 C163.833567,59.7381167 166.914482,58.6395505 169.4,56.65 C171.940895,54.7278867 174.106877,52.3551369 175.79,49.65 C175.56,51.59 175.28,53.38 174.95,55.01 L173.95,60.01 L179.04,59.82 C184.89,59.6 186.97,58.99 188.14,58.47 L188.78,58.19 L189.29,57.71 C192.45379,54.6100356 195.097646,51.02074 197.12,47.08 C197.361338,48.3985919 197.695503,49.6984926 198.12,50.97 C200.74,58.67 206.12,59.81 209.04,59.81 C214.83,59.81 220.75,56.4 227.12,49.38 L227.38,49.09 C229.982708,50.2784044 232.819366,50.866242 235.68,50.81 C238.963121,50.8399919 242.216181,50.1825672 245.23,48.88 C246.759089,48.1452647 248.215529,47.2680526 249.58,46.26 C251.73,44.75 252.64,44.18 252.98,43.97 L253.2,43.83 L255.12,42.71 L255.12,30.15 L250.57,32.86 Z" id="Shape"></path>
                </g>
                <g id="Text_outline_1" transform="translate(2.000000, 2.000000)" fill="#FFE003">
                    <path d="M131.25,33.71 C128.35,35.66 126.92,36.39 125.64,36.39 C125.917341,35.0932921 126.340012,33.8319911 126.9,32.63 L131.38,21.8 L132.57,18.94 L129.49,19.04 L124.99,19.19 L123.99,19.19 L123.42,20.04 C122.507101,21.4637498 121.384445,22.7414872 120.09,23.83 C119.8,20.83 117.74,19 114.46,19 C112.201369,18.9908961 110.023953,19.84184 108.37,21.38 C107.54216,22.1020033 106.862849,22.9783142 106.37,23.96 C106.250466,23.7222724 106.116897,23.4918655 105.97,23.27 C104.1,20.44 101.07,18.99 96.97,18.99 C96.2005224,18.9891114 95.431943,19.0425778 94.67,19.15 C91.9500999,19.5603384 89.3527942,20.5603523 87.06,22.08 C84.7524183,23.5275125 82.8034654,25.4798846 81.36,27.79 L81.13,28.19 C81.2586722,27.6936575 81.3225365,27.1827436 81.32,26.67 C81.3165701,25.452762 80.9472517,24.2646717 80.26,23.26 C78.39,20.43 75.36,18.98 71.26,18.98 C70.4905224,18.9791114 69.721943,19.0325778 68.96,19.14 C66.2400999,19.5503384 63.6427942,20.5503523 61.35,22.07 C59.0424183,23.5175125 57.0934654,25.4698846 55.65,27.78 C54.9224765,28.9852049 54.3448672,30.2747512 53.93,31.62 C53.0529618,30.0525864 51.8531853,28.6892041 50.41,27.62 C54.5,25.36 56.94,22.62 57.66,19.32 C57.9152899,18.2583436 58.0527867,17.1717834 58.07,16.08 C58.1276732,12.270331 56.3905306,8.65529651 53.38,6.32 C48.95,2.68 43.2,0.83 36.27,0.83 C30.4692912,0.803081191 24.7476077,2.17518755 19.59,4.83 C13.51,8.03 9.71,12.45 8.27,17.99 C7.90811989,19.3272138 7.71660399,20.7047844 7.7,22.09 C7.7,25.41 9.36,28.41 12.63,31 L13.63,31.78 L14.76,31.23 L22.83,27.29 C22.6,28.55 22.39,29.85 22.2,31.29 C20.81,41.87 18.2,47.66 14.75,47.66 L14.12,47.66 C14.0758097,47.6815001 14.0241903,47.6815001 13.98,47.66 C13.8461125,47.1003361 13.7889222,46.5250698 13.81,45.95 C13.8421355,43.6112708 14.2023143,41.2886221 14.88,39.05 L16.18,34.58 L12.04,36.73 L2.12,41.89 L0.87,42.54 L1.06,43.93 L1.35,46.09 C2.2,52.69 6.13,56.18 12.69,56.18 C18.4998705,56.2324131 24.1200624,54.1141428 28.45,50.24 C29.37,53.07 31.76,55.97 37.67,55.97 C40.7373232,55.9694052 43.7520859,55.1735079 46.42,53.66 C49.1377597,52.1510592 51.4210936,49.9675996 53.05,47.32 C54.1362765,45.5798984 54.8922576,43.65435 55.28,41.64 C55.7002196,42.202918 56.1722848,42.725203 56.69,43.2 C59.32,45.61 62.87,46.82 67.26,46.82 C70.2601755,46.8516179 73.2338114,46.2555283 75.99,45.07 C77.396387,44.3868638 78.7355873,43.5732996 79.99,42.64 L81.12,41.84 C81.4985434,42.3269491 81.916629,42.7818263 82.37,43.2 C85,45.61 88.55,46.82 92.94,46.82 C95.9401755,46.8516179 98.9138114,46.2555283 101.67,45.07 C102.592312,44.6185801 103.484204,44.1074957 104.34,43.54 L105.66,42.72 C108.273554,41.1088907 110.69864,39.2104143 112.89,37.06 C112.728507,37.7416893 112.644641,38.4394582 112.64,39.14 C112.627893,40.3254273 112.895104,41.4970471 113.42,42.56 C114.764989,45.3857183 117.697266,47.1054589 120.82,46.9 C123.376481,46.7935114 125.864124,46.0399929 128.05,44.71 C128.886665,44.2128871 129.685501,43.6547045 130.44,43.04 C131.12,42.52 131.96,41.88 133.01,41.14 L133.21,41 L133.37,40.81 L133.86,39.95 L134.09,39.39 L134.09,31.66 L131.25,33.71 Z M26.12,17.02 C25.0197781,19.0334653 24.1861184,21.1814836 23.64,23.41 L23.64,23.41 C19.3,21.1 19.3,18.96 19.3,18.26 C19.2978717,17.7441531 19.432436,17.236949 19.69,16.79 C20.91,14.64 23.17,12.79 26.42,11.29 C29.1903645,9.94528888 32.22096,9.22176834 35.3,9.17 L35.79,9.17 C31.6838467,10.4583246 28.224813,13.2663302 26.12,17.02 L26.12,17.02 Z M39.58,42.48 C39.2938938,43.9585196 38.8444726,45.4006922 38.24,46.78 C38.1432768,45.7829645 38.0965516,44.7817102 38.1,43.78 L38.1,36.17 L36.2,38.44 C36.7720039,36.6984444 37.1804371,34.9073646 37.42,33.09 L37.66,30.95 C38.3974729,31.1036744 39.1201928,31.3211596 39.82,31.6 C40.1918503,32.065036 40.4610814,32.6034982 40.61,33.18 L40.61,33.92 C40.5564804,36.7958044 40.2215497,39.6594622 39.61,42.47 L39.58,42.48 Z M42.85,20.39 C42.5269959,21.3672694 41.8908325,22.2108011 41.04,22.79 C40.2329945,23.0105976 39.4107392,23.1710376 38.58,23.27 C39.45,18.27 40.83,16.03 41.89,15.04 L42.89,14.11 L43.23,13.79 C43.8888322,15.9598525 43.7649627,18.2921396 42.88,20.38 L42.85,20.39 Z M67.03,29.21 C67.1233333,28.9966667 67.2266667,28.7866667 67.34,28.58 C67.7217361,27.6769555 68.4830896,26.9888091 69.42,26.7 C69.4230507,26.7566256 69.4230507,26.8133744 69.42,26.87 L69.42,26.97 L69.42,27.04 C69.2573359,27.8485404 68.6909104,28.5169225 67.92,28.81 C67.6407545,28.9557799 67.353648,29.0859794 67.06,29.2 L67.03,29.21 Z M79.03,35.04 L76.46,36.66 C74.9333986,37.4681773 73.237123,37.9033834 71.51,37.93 C70.3793209,37.9741375 69.2766361,37.5718551 68.44,36.81 L70.21,36.31 C71.8295525,35.7949407 73.4047068,35.1494953 74.92,34.38 C76.9179046,33.5008503 78.674249,32.1527188 80.04,30.45 C79.4456003,31.9082063 79.1040446,33.4570429 79.03,35.03 L79.03,35.04 Z M92.76,29.21 C92.8533333,28.9966667 92.9566667,28.7866667 93.07,28.58 C93.4475989,27.687304 94.1964561,27.0042001 95.12,26.71 C95.1230507,26.7666256 95.1230507,26.8233744 95.12,26.88 L95.12,26.98 L95.12,27.05 C94.9573359,27.8585404 94.3909104,28.5269225 93.62,28.82 C93.3405375,28.9623812 93.0534348,29.0892405 92.76,29.2 L92.76,29.21 Z M106.37,34.03 L105.88,34.43 C104.779038,35.2594649 103.604084,35.9858607 102.37,36.6 L102.37,36.6 L102.37,36.6 C100.8293,37.4206419 99.1154142,37.8628244 97.37,37.89 C96.2326279,37.9270907 95.125119,37.5220794 94.28,36.76 L96.04,36.26 C97.6595675,35.744982 99.2347251,35.0995352 100.75,34.33 C102.921805,33.4000798 104.794143,31.8876735 106.16,29.96 C106.533183,30.9212559 107.154227,31.7665655 107.96,32.41 C107.49354,33.0059052 106.960028,33.5461283 106.37,34.02 L106.37,34.03 Z" id="Shape"></path>
                    <path d="M247.84,33.63 C246.75,34.32 243.4,36.39 242.96,36.63 C241.415661,37.4387221 239.703079,37.8737181 237.96,37.9 C236.823334,37.9440499 235.71446,37.5421279 234.87,36.78 L236.62,36.28 C238.239628,35.7651472 239.814798,35.1196951 241.33,34.35 C245.55,32.27 247.69,29.7 247.69,26.73 C247.687188,25.5126673 247.317814,24.3243993 246.63,23.32 C244.76,20.49 241.73,19.05 237.63,19.05 C236.860525,19.0491779 236.09195,19.102644 235.33,19.21 C232.6101,19.6203384 230.012794,20.6203523 227.72,22.14 C225.413724,23.5891495 223.465105,25.5411878 222.02,27.85 C220.568959,30.1499979 219.770486,32.8012039 219.71,35.52 C219.709913,36.313818 219.797104,37.1052395 219.97,37.88 L219.91,37.95 L216.91,41.06 C214.21,43.82 212.91,44.06 212.53,44.06 C211.14,44.06 210.93,41.12 210.93,39.36 C210.93,32.19 214.04,20.12 220.17,3.47 L221.31,0.39 L218.05,0.8 L208.83,1.95 L208.34,2.01 L207.94,2.29 C203.894388,5.18343263 200.54339,8.9409225 198.13,13.29 C195.880136,17.4364726 193.934999,21.741174 192.31,26.17 C192.03,26.9 191.56,27.6 191.31,28.27 C191.31,27.95 191.1,27.62 191.1,27.27 L191.1,19.8 C190.993087,14.3294834 191.570906,8.86707676 192.82,3.54 L193.61,0.93 L190.97,1.03 L182.97,1.32 L182.09,1.32 L181.52,2 C177.81741,6.33745703 175.022297,11.3734204 173.3,16.81 C172.9,18.11 172.23,20.81 171.25,25.01 C170.277542,29.4239655 169.007985,33.7671885 167.45,38.01 C164.74,44.81 162.57,45.55 161.77,45.55 L161.67,45.55 C161.349684,44.7895072 161.222571,43.9615575 161.3,43.14 C161.323565,41.5661775 161.480797,39.9972021 161.77,38.45 L162.77,32.66 L158.43,36.66 L149.57,44.76 L148.8,45.46 L148.94,46.46 C149.207716,48.8978725 150.260616,51.1826654 151.94,52.97 C153.672365,54.7855692 156.091369,55.7844072 158.6,55.72 C161.350123,55.683677 164.008582,54.7259274 166.15,53 C169.870975,50.0757855 172.746148,46.2134579 174.48,41.81 C175.247223,39.9162141 175.914803,37.9835706 176.48,36.02 L176.21,41.31 C176.041522,45.3391801 175.573564,49.3502466 174.81,53.31 L174.3,55.81 L176.85,55.72 C182.42,55.51 184.29,54.95 185.22,54.54 L185.54,54.4 L185.79,54.16 C189.377767,50.6117699 192.279722,46.4317342 194.35,41.83 C194.57,41.39 195.05,40.31 196.49,36.65 L196.49,38.65 C196.454105,41.9054157 196.950654,45.1448037 197.96,48.24 C200.07,54.43 204.03,55.73 206.96,55.73 C212.16,55.73 217.59,52.53 223.56,45.96 L224.2,45.26 L224.12,44.41 L224.06,43.99 C226.864289,45.9580405 230.236588,46.9521663 233.66,46.82 C236.660175,46.8516179 239.633811,46.2555283 242.39,45.07 C243.796387,44.3868638 245.135587,43.5732996 246.39,42.64 C249.22,40.64 249.95,40.27 250.1,40.16 L251.1,39.56 L251.1,31.71 L247.84,33.63 Z M233.45,29.21 C233.543333,28.9966667 233.646667,28.79 233.76,28.59 C234.15596,27.6971586 234.911808,27.0139883 235.84,26.71 C235.84309,26.7666245 235.84309,26.8233755 235.84,26.88 L235.84,26.98 L235.84,27.05 C235.677336,27.8585404 235.11091,28.5269225 234.34,28.82 C234.050763,28.9634066 233.753619,29.0902774 233.45,29.2 L233.45,29.21 Z" id="Shape"></path>
                </g>
                <g id="Text" transform="translate(5.000000, 4.000000)" fill="#BF0000">
                    <path d="M38.57,10.64 L37.57,11.58 C35.4566667,13.58 34.04,17.4433333 33.32,23.17 C33.1266667,24.85 32.84,27.3933333 32.46,30.8 C31.8010343,36.4923621 29.2103292,41.7867185 25.12,45.8 C21.048284,49.9046565 15.4913915,52.1908796 9.71,52.14 C4.19,52.14 1.07,49.3566667 0.35,43.79 L0.05,41.71 L9.91,36.6 C9.17808971,39.0202886 8.79094888,41.5316543 8.76,44.06 C8.76,46.24 9.19333333,47.4233333 10.06,47.61 C10.3810618,47.7292485 10.7180908,47.8000246 11.06,47.82 L11.71,47.82 C16.4166667,47.82 19.56,41.77 21.14,29.67 C21.9533333,23.5033333 23.2,18.96 24.88,16.04 C27.28,11.8333333 31.12,9.27333333 36.4,8.36 L38.57,10.64 Z M52.68,16.98 C51.9133333,20.4333333 48.6966667,23.29 43.03,25.55 C48.07,27.6633333 50.59,31.33 50.59,36.55 C50.5915771,39.2761591 49.8181885,41.9466041 48.36,44.25 C46.9153416,46.6121177 44.8824154,48.5589029 42.46,49.9 C40.0889254,51.2479276 37.4074316,51.9544909 34.68,51.95 C30.36,51.95 27.84,50.1966667 27.12,46.69 L33.12,39.56 L33.12,41.71 C33.12,45.41 33.48,47.41 34.2,47.71 C34.3896114,47.7576794 34.5844894,47.7811992 34.78,47.78 C36.2666667,47.78 37.5133333,45.4766667 38.52,40.87 C39.1766543,37.9130822 39.5384249,34.8983273 39.6,31.87 C39.619917,31.462002 39.5964522,31.0530424 39.53,30.65 C39.2797012,29.6029657 38.7308221,28.6511121 37.95,27.91 C36.9677677,27.4352012 35.9245309,27.0986732 34.85,26.91 L35.43,23.31 C36.6052156,23.1908602 37.7648134,22.9495567 38.89,22.59 C40.2104153,21.8099533 41.2074009,20.5823483 41.7,19.13 C42.2942663,17.7412201 42.6134957,16.2503508 42.64,14.74 C42.64,10.74 41.08,7.93333333 37.96,6.32 C36.1718586,5.5201535 34.2284143,5.12736598 32.27,5.17 C28.9006354,5.21538416 25.5823976,6.00056389 22.55,7.47 C18.9033333,9.15 16.36,11.2633333 14.92,13.81 C14.4930702,14.5558791 14.268966,15.4005794 14.27,16.26 C14.27,18.9266667 16.07,21.23 19.67,23.17 L10.81,27.49 C8.02333333,25.2833333 6.63,22.8366667 6.63,20.15 C6.64395006,18.9336986 6.8119546,17.7240659 7.13,16.55 C8.42333333,11.5566667 11.8566667,7.59666667 17.43,4.67 C22.3083322,2.17034503 27.7187072,0.887225009 33.2,0.93 C39.68,0.93 44.96,2.59666667 49.04,5.93 C51.5974709,7.87943591 53.0810716,10.9245263 53.04,14.14 C53.0254104,15.0937712 52.9046665,16.0429524 52.68,16.97 L52.68,16.98 Z" id="Shape"></path>
                    <path d="M122.76,36.41 C121.27,36.41 120.76,35.78 120.76,34.53 C120.947794,32.9232322 121.400596,31.3586992 122.1,29.9 L126.55,19.05 L122.04,19.2 C119.74,22.65 117.21,24.74 114.42,25.46 C114.837673,24.5810479 115.062698,23.6229893 115.08,22.65 C115.08,20.25 113.856667,19.05 111.41,19.05 C109.64621,19.0452056 107.947157,19.7140962 106.66,20.92 C105.335337,22.0223411 104.569477,23.6566635 104.57,25.38 C104.44783,27.1446859 105.460351,28.7920418 107.09,29.48 C107.09,31.11 106.32,31.96 104.68,33.48 L104.1,33.96 C102.87916,34.8848898 101.573307,35.6918402 100.2,36.37 C98.3656457,37.3410967 96.3254368,37.858864 94.25,37.88 C91.42,37.88 89.25,36.44 87.89,33.56 C89.89,33.03 91.38,32.62 92.34,32.34 C93.8496627,31.8598707 95.3178249,31.2578907 96.73,30.54 C100.236667,28.8133333 101.986667,26.87 101.98,24.71 C101.976456,23.8884192 101.725562,23.0869491 101.26,22.41 C99.7733333,20.1566667 97.3266667,19.03 93.92,19.03 C93.2508755,19.0297187 92.5825598,19.0765008 91.92,19.17 C89.4882242,19.5386381 87.1669668,20.4364186 85.12,21.8 C83.0634801,23.0863615 81.3263615,24.8234801 80.04,26.88 C78.7832522,28.8635137 78.0917355,31.1524342 78.04,33.5 L78.04,34.09 C75.71,35.57 74.49,36.34 74.41,36.38 C72.5927454,37.3488383 70.5692522,37.8667154 68.51,37.89 C65.6766667,37.89 63.5633333,36.45 62.17,33.57 C64.17,33.0433333 65.6566667,32.6366667 66.63,32.35 C68.1395875,31.8696638 69.6077332,31.2676906 71.02,30.55 C74.5266667,28.8233333 76.28,26.88 76.28,24.72 C76.2770771,23.898323 76.0261261,23.0966742 75.56,22.42 C74.0733333,20.1666667 71.6266667,19.04 68.22,19.04 C67.5508755,19.0397187 66.8825598,19.0865008 66.22,19.18 C63.7882242,19.5486381 61.4669668,20.4464186 59.42,21.81 C57.3634801,23.0963615 55.6263615,24.8334801 54.34,26.89 C53.0832522,28.8735137 52.3917355,31.1624342 52.34,33.51 C52.3046887,35.874638 53.3058254,38.1363299 55.08,39.7 C57.3333333,41.7666667 60.4066667,42.8 64.3,42.8 C67.021496,42.8335612 69.7197124,42.2952807 72.22,41.22 C73.509073,40.5906794 74.737574,39.8442061 75.89,38.99 L78.76,36.99 C79.2339181,38.032438 79.9142932,38.9679538 80.76,39.74 C83.0133333,41.8066667 86.0866667,42.84 89.98,42.84 C92.701496,42.8735612 95.3997124,42.3352807 97.9,41.26 C98.9,40.83 100.1,39.97 101.66,39.03 C105.560658,36.5827976 109.039058,33.5197795 111.96,29.96 C113.26,29.72 114.15,29.53 114.72,29.38 C112.72,32.6 111.72,35.19 111.72,37.16 C111.708355,38.0332237 111.903685,38.896791 112.29,39.68 C113.304856,41.8210025 115.538355,43.1109377 117.9,42.92 C120.115522,42.8039408 122.267117,42.1371525 124.16,40.98 C125.22,40.4 126.49,39.25 128.93,37.52 L129.67,36.66 L129.67,33.42 C126.62,35.4 124.68,36.41 122.76,36.41 Z M62.62,25.61 C63.2930608,24.1676235 64.5776575,23.1032433 66.12,22.71 C66.3779759,22.6369752 66.6426402,22.5900726 66.91,22.57 C67.9633333,22.57 68.49,23.1933333 68.49,24.44 C68.4985475,24.7283734 68.4750705,25.0168048 68.42,25.3 C68.1660661,26.7296481 67.2231521,27.9419661 65.9,28.54 C64.5006528,29.2298748 63.0280306,29.7598846 61.51,30.12 C61.4864561,28.5475038 61.8650983,26.9950705 62.61,25.61 L62.62,25.61 Z M88.32,25.61 C88.989195,24.1844154 90.2566558,23.1294192 91.78,22.73 C92.0379759,22.6569752 92.3026402,22.6100726 92.57,22.59 C93.6233333,22.59 94.15,23.2133333 94.15,24.46 C94.1585475,24.7483734 94.1350705,25.0368048 94.08,25.32 C93.8260661,26.7496481 92.8831521,27.9619661 91.56,28.56 C90.1606528,29.2498748 88.6880306,29.7798846 87.17,30.14 C87.1583534,28.5563464 87.5543828,26.9963349 88.32,25.61 L88.32,25.61 Z" id="Shape"></path>
                    <path d="M219.12,42.71 C213.6,48.79 208.56,51.83 204,51.83 C200.666667,51.83 198.29,49.7866667 196.87,45.7 C195.926431,42.8117881 195.463605,39.7882175 195.5,36.75 C195.5,29.7766667 197.346667,21.9133333 201.04,13.16 C198.523307,17.1463625 196.447763,21.394689 194.85,25.83 C191.876667,33.6033333 190.123333,38.02 189.59,39.08 C187.626088,43.4630805 184.866053,47.4437705 181.45,50.82 C180.25,51.3466667 177.706667,51.68 173.82,51.82 C174.606528,47.7583521 175.087873,43.6435193 175.26,39.51 L175.98,25.51 C176.160432,21.3806131 176.618129,17.2680164 177.35,13.2 C175.850273,17.4768515 174.601482,21.837602 173.61,26.26 C172.603741,30.6579407 171.266601,34.9735595 169.61,39.17 C168.016325,43.2583114 165.357713,46.8457107 161.91,49.56 C160.115991,51.0200358 157.882759,51.8337213 155.57,51.87 C153.626363,51.9041822 151.757734,51.1204465 150.42,49.71 C149.028251,48.2314601 148.157441,46.338852 147.94,44.32 L156.8,36.22 C156.492054,37.869502 156.324786,39.5421821 156.3,41.22 C156.3,44.0066667 156.996667,45.47 158.39,45.61 C161.223333,45.8966667 163.863333,42.97 166.31,36.83 C167.908207,32.4836748 169.207894,28.0333324 170.2,23.51 C171.16,19.3833333 171.826667,16.6966667 172.2,15.45 C173.842817,10.2673365 176.512559,5.46860276 180.05,1.34 L188.11,1.05 C187.056667,5.05 186.53,10.6433333 186.53,17.83 L186.53,25.32 C186.610365,29.435811 186.369636,33.551622 185.81,37.63 C187.836627,33.4829996 189.63922,29.2302164 191.21,24.89 C192.797806,20.5572473 194.699517,16.3460755 196.9,12.29 C199.161547,8.18901579 202.311793,4.64584393 206.12,1.92 L215.34,0.77 C209.1,17.7166667 205.98,29.91 205.98,37.35 C205.98,41.8166667 207.18,44.05 209.58,44.05 C211.113333,44.05 213.056667,42.85 215.41,40.45 L218.41,37.35 L219.12,42.71 Z" id="Shape"></path>
                    <path d="M245.72,36.56 L242.26,39.01 C241.107511,39.8641124 239.879019,40.6105803 238.59,41.24 C236.089624,42.3149954 233.391468,42.8532637 230.67,42.82 C226.783333,42.82 223.71,41.7866667 221.45,39.72 C219.675825,38.1563299 218.674689,35.894638 218.71,33.53 C218.761735,31.1824342 219.453252,28.8935137 220.71,26.91 C221.996362,24.8534801 223.73348,23.1163615 225.79,21.83 C227.836967,20.4664186 230.158224,19.5686381 232.59,19.2 C233.252563,19.1065336 233.920877,19.0597517 234.59,19.06 C237.996667,19.06 240.443333,20.1866667 241.93,22.44 C242.396126,23.1166742 242.647077,23.918323 242.65,24.74 C242.65,26.9 240.896667,28.8433333 237.39,30.57 C235.977752,31.2877306 234.509602,31.8897051 233,32.37 C232.04,32.6566667 230.553333,33.0633333 228.54,33.59 C229.933333,36.47 232.046667,37.91 234.88,37.91 C236.939252,37.8867154 238.962745,37.3688383 240.78,36.4 C240.873333,36.3533333 242.506667,35.32 245.68,33.3 L245.68,36.54 L245.72,36.56 Z M234.78,25.33 C234.83507,25.0468048 234.858547,24.7583734 234.85,24.47 C234.85,23.2233333 234.323333,22.6 233.27,22.6 C233.00264,22.6200726 232.737976,22.6669752 232.48,22.74 C230.956656,23.1394192 229.689195,24.1944154 229.02,25.62 C228.252294,27.0091266 227.856181,28.57291 227.87,30.16 C229.388031,29.7998846 230.860653,29.2698748 232.26,28.58 C233.583367,27.9741132 234.52256,26.7542848 234.77,25.32 L234.78,25.33 Z" id="Shape"></path>
                </g>
            </g>
        </g>
    </g>
</svg>